<?xml version="1.0" encoding="UTF-8"?>
<svg version="1.1" viewBox="0 0 2048 862" width="843" height="355" xmlns="http://www.w3.org/2000/svg">
<path transform="translate(0)" d="m0 0h2048v862h-2048z" fill="#00031A"/>
<path transform="translate(696,379)" d="m0 0h16l17 4 14 8 10 9 2 3 1-21 2-1 23 1v160l-5 16-7 12-7 8-13 9-12 5-15 3h-20l-16-3-13-5-12-8-7-7-6-9-5-15v-3h25l7 13 10 8 8 4 7 2h24l12-5 8-6 6-8 4-12 1-5v-34l-6 8-12 9-10 5-13 3h-21l-15-4-13-7-12-11-7-10-6-12-4-16v-28l3-14 8-16 7-9 7-7 13-8 16-5z" fill="#FEFEFE"/>
<path transform="translate(1689,379)" d="m0 0h17l18 4 16 8 12 10 8 11 5 10 4 14 1 5v24l-4 16-8 16-11 12-9 7-14 7-17 4h-21l-14-3-12-5-11-8-9-9-7-11-5-12-3-13-1-9 2-23 5-15 8-13 9-10 10-7 13-6z" fill="#FEFEFE"/>
<path transform="translate(972,379)" d="m0 0h17l18 4 16 8 10 8 7 8 8 14 4 13 1 5v28l-4 15-7 14-9 11-10 8-16 8-10 3-7 1h-21l-16-4-16-8-12-11-7-10-5-10-4-14-1-7v-19l3-16 5-12 7-11 12-12 14-8 12-4z" fill="#FEFEFE"/>
<path transform="translate(1426,379)" d="m0 0h19l15 4 10 5 10 9 7 10 4-5 5-7h2v-2l10-7 12-5 8-2h19l16 4 11 6 8 7 9 14 4 12 2 20v82h-26l-1-92-4-13-6-8-8-6-9-3-13-1-10 2-12 6-7 8-4 9-2 10-1 18v69l-1 1h-24l-1-84-2-13-4-10-4-5v-2l-14-7-10-2-14 1-12 5-7 6-7 14-2 10-1 87h-25v-142l2-1 23 1 1 16 8-8 10-6 11-4z" fill="#FEFEFE"/>
<path transform="translate(1950,379)" d="m0 0h17l15 3 12 5 11 7 9 9 8 13 5 15 1 6v25l-1 1h-114l5 17 6 10 7 7 14 7 15 2 16-3 11-6 7-8 4-8h27l-1 5-7 14-11 12-10 7-12 5-14 3h-22l-16-4-14-7-10-9-8-9-8-16-4-16v-26l4-16 4-9 6-10 9-10 14-9 14-5z" fill="#FEFEFE"/>
<path transform="translate(195,379)" d="m0 0h17l16 3 16 8 9 7 9 10 7 14 3 10 1 5v26l-1 1h-113l3 14 5 10 8 9 10 6 11 3h17l10-3 10-6 6-7 5-8h26l-2 8-6 11-11 12-10 7-12 5-14 3h-22l-16-4-14-7-12-11-7-9-6-12-4-14-1-7v-19l2-14 6-15 7-11 8-9 14-9 14-5z" fill="#FEFEFE"/>
<path transform="translate(1067,381)" d="m0 0 25 1 4 13 22 80 5 18v5h2l1-7 17-58 14-47 2-4h25l3 8 18 62 13 45 17-63 13-48 3-5 24 1-13 42-17 54-14 45-1 1-24 1-3-3-17-55-15-50-1-1-10 35-20 65-3 8h-26l-12-36-20-64-12-38z" fill="#FEFEFE"/>
<path transform="translate(479,379)" d="m0 0h17l17 4 11 6 8 7 6 10 3 8 1 10-1 1h-24l-4-12-6-7-9-4-5-1h-12l-13 4-6 7-1 2v11l4 6 7 5 48 16 10 6 8 8 5 11v18l-4 9-6 8-7 6-12 6-13 3h-22l-16-4-12-6-9-8-6-9-4-11-1-6 1-1h25l4 10 6 7 10 5 5 1h17l11-4 6-7 2-10-3-8-8-5-17-6-24-7-12-5-10-8-6-8-3-8-1-12 3-12 6-9 8-7 14-7z" fill="#FEFEFE"/>
<path transform="translate(699,401)" d="m0 0h18l10 3 11 6 7 7 6 10 4 11 1 5v20l-3 12-7 13-8 8-10 6-9 3h-21l-13-5-9-7-7-9-5-10-2-7-1-8v-11l2-13 5-12 7-9 7-6 10-5z" fill="#00031A"/>
<path transform="translate(971,401)" d="m0 0h18l13 4 9 6 7 7 7 14 3 13v16l-4 16-6 10-7 8-10 6-11 4h-21l-11-4-11-8-7-10-5-13-1-5v-24l4-13 6-11 8-8 12-6z" fill="#00031A"/>
<path transform="translate(1688,401)" d="m0 0h18l10 3 11 6 9 10 6 13 3 15v9l-3 16-7 14-5 6-10 7-10 4-4 1h-20l-11-4-10-7-6-7-6-12-2-8-1-17 2-15 5-12 6-8 9-8 12-5z" fill="#00031A"/>
<path transform="translate(310,345)" d="m0 0 24 1v36h36l1 1v18l-1 1h-36l1 91 3 6 5 3 4 1 23 1 1 1v19h-36l-11-4-8-7-5-8-2-7-1-95-18-1v-20l18-1 1-35z" fill="#FEFEFE"/>
<path transform="translate(30,343)" d="m0 0h25v162h63v19l-85 1-3-1z" fill="#FEFEFE"/>
<path transform="translate(881,379)" d="m0 0h9l1 1v24l-1 1-18 1-11 4-7 6-6 12-2 9-1 87h-25l-1-1v-140l1-1h25l1 18 9-10 9-6 8-3z" fill="#FEFEFE"/>
<path transform="translate(1861,379)" d="m0 0h10v25l-1 1-18 1-10 4-7 5-5 8-3 9-1 8-1 84h-25v-142h25l1 19 4-6 9-8 10-5z" fill="#FEFEFE"/>
<path transform="translate(1952,400)" d="m0 0h12l12 3 10 5 7 6 6 10 3 10v8h-88l1-8 4-11 6-9 8-7 10-5z" fill="#00031A"/>
<path transform="translate(198,400)" d="m0 0h11l12 3 10 5 8 7 7 14 2 13h-89l1-8 5-13 7-9 8-6 8-4z" fill="#00031A"/>
<path transform="translate(388,317)" d="m0 0h23l1 5-3 47-1 1h-17l-1-2-3-45v-5z" fill="#FEFEFE"/>
</svg>
