<?xml version="1.0" encoding="UTF-8"?>
<svg version="1.1" viewBox="0 0 2048 1136" width="984" height="546" xmlns="http://www.w3.org/2000/svg">
<path transform="translate(0)" d="m0 0h2048v1136h-2048z" fill="#00031B"/>
<path transform="translate(295,275)" d="m0 0h95l1 201 6 1 11-13 12-13 13-10 15-9 16-6 16-4 16-2h30l21 3 15 4 16 7 11 7 11 9 8 9 9 14 7 14 6 19 4 21 2 26v253l-1 1h-94l-1-1-1-24v-219l-3-21-5-13-6-10-7-7-15-7-13-3h-26l-14 3-11 4-14 8-14 14-8 13-6 16-4 19-1 8-1 20v198l-2 2h-94l-1-4v-511z" fill="#A8A9B1"/>
<path transform="translate(889,420)" d="m0 0h32l26 3 17 4 20 7 16 8 16 11 14 13 11 14 12 21 8 22 5 23 2 17 1 17v27l-1 19-1 8-6 4h-245l5 30 6 17 7 13 8 10 13 10 14 7 18 5 19 2 20-1 20-4 12-5 14-9 9-9 9-13 6-8h6l24 15 15 10 24 15-1 5-9 16-12 16-18 18-18 13-15 8-19 7-23 5-16 2-26 1-22-1-22-3-18-4-17-5-23-10-17-11-11-9-12-11-9-11-9-13-9-16-8-19-7-25-4-25-2-29 1-30 3-23 5-23 7-20 10-21 14-21 10-11 5-6 11-9 9-7 18-11 21-9 25-7 19-3z" fill="#A8A9B1"/>
<path transform="translate(1599,420)" d="m0 0h32l25 3 21 5 19 7 17 9 11 8 14 12 9 11 10 15 9 19 6 19 4 20 2 18v56l-1 11-3 3-3 2-245 1 4 26 7 21 8 14 9 10 14 10 11 5 13 4 12 2 19 1 20-2 19-5 13-7 10-8 9-10 10-16 6-1 5 2 19 12 20 13 16 10 5 4-2 5-8 15-10 13-7 8-12 12-19 14-15 8-16 6-21 5-21 3-26 1-22-1-22-3-15-3-23-7-20-9-19-12-10-9-8-7-10-11-9-12-11-19-10-25-6-23-4-27-1-17v-23l2-26 5-27 6-20 9-21 7-12 10-15 10-11 7-8 14-12 21-13 22-10 21-6 24-4z" fill="#A8A9B1"/>
<path transform="translate(1328,424)" d="m0 0h29l17 3 13 5 3 2v8l-14 71-2 4-2 1-10-1-15-4-10-1h-16l-14 2-14 5-12 7-8 7-9 13-7 15-5 18-3 18-1 14-1 195-1 1h-94l-1-1v-378l1-1h92v56l8 1 2-6 6-11 8-11 9-10 12-9 14-7 13-4z" fill="#A8A9B1"/>
<path transform="translate(895,494)" d="m0 0h16l14 2 13 4 11 6 10 9 7 11 5 11 4 15 2 16v9h-158l-1-4 4-17 6-17 8-14 9-11 14-10 11-5 15-4z" fill="#00031B"/>
<path transform="translate(1605,494)" d="m0 0h16l14 2 12 4 11 6 10 8 9 14 6 16 3 16 1 16-1 1h-158l1-10 4-15 5-13 8-14 10-12 13-9 13-6 13-3z" fill="#00031B"/>
</svg>
