<?xml version="1.0" encoding="UTF-8"?>
<svg version="1.1" viewBox="0 0 1896 1724" width="474" height="431" xmlns="http://www.w3.org/2000/svg">
<path transform="translate(1462,99)" d="m0 0h34l23 3 25 6 16 6 21 10 23 14 17 12 10 8 13 11 10 9 6 5v2l4 2 12 12 7 8 15 16 3 3-1 4-7 8-8 7-107 107-8 7-64 64-11 9-1 5 7 8 18 12 15 7 13 3h22l20-6 12-5 18-12 14-11 19-19 9-11 9-10 13-18 11-16 7-10 2-3 4 1 19 11 26 17 18 11 17 10 2 3-8 18-12 21-8 12-8 11-10 13-14 15-27 27-8 7-12 11-13 10-16 11-15 9-15 8-19 8-15 5-26 6-19 2h-29l-18-2-27-7-22-8-23-11-21-13-14-10-13-10-14-12-13-12-13-13-9-11-11-13-14-19-13-21-7-11-3-1-6 4-10 10-7 10-8 14-6 15-4 15-2 15v19l4 17 6 15 8 15 11 14 11 11 7 8 12 12 8 7 14 14 8 7 105 105 7 6 2 4-24 24-8 7-53 53-7 8-17 17-7-6-13-13-7-8-47-47-7-8-15-15-8-7-12-11-8-7-7-6-5 3-90 90-8 7-12 12-8 7-22 22-7 8-35 35-5 4-7 8-6 5-5 6v5l6 7 13 9 16 8 13 4 7 1h17l16-4 12-5 14-8 20-16 10-9 9-9 11-14 13-16 12-17 9-13 8-11 4 2 19 13 18 13 16 11 19 12 2 3-12 25-13 21-12 17-11 14-11 12-7 8-12 12-8 7-15 14-14 11-13 10-22 14-17 9-19 8-24 7-23 4-10 1h-32l-21-3-26-8-25-9-16-7-16-9-18-11-4-1 2 8 7 9 16 15 26 26 8 7 9 9 8 7 50 50 2 4-7 8-64 64-8 7-16 17-7 6-7-6-11-11-7-8-98-98-8-7-18-18-8-7-10-9-14-11-13-11-19-13-13-8-15-6-14-3h-11l-12 3-11 6-12 11-11 14-7 14-3 12v16l4 17 7 16 6 11 8 12 10 13 18 20 24 24 8 7 11 12 108 108v1h-201l-8-1-8-7-7-8-19-19-8-7-50-50-7-8-54-54-8-7-32-32v-2l-3-1-118-118-4-3v-2l-3-1-5-6-8-7-19-19-7-8-28-28-7-6-5-6 2-4 6-7h2l2-4 24-24h2l2-4h2v-2l8-7 25-25 1-2h2l2-4 24-24 4 2 7 8 59 59v2l4 2 7 8 27 27 6 7 8 7 61 61 8 7 6 7 8 5v-30l3-16 6-18 8-17 11-18 10-13 11-13 15-15 17-12 16-9 18-8 24-7 13-2h34l19 3 20 6 18 8 17 10 17 12 11 9 11 10 9 6 2 1-3-10-12-21-8-16-8-19-7-23-5-24-2-16v-30l4-25 4-15 8-21 9-17 6-11 11-16 11-14 9-11h2l2-4 12-12h2v-2l11-9 15-12 14-9 16-9 19-8 18-6 13-3 23-3h35l24 4 21 6 20 8 16 8 21 11 14 10 5 2-2-7-12-13-25-25-7-8-12-11-29-29-8-7-24-24-5-7 74-74 7-8 13-13 4 2 13 11 11 9 15 13 11 10 12 9 5 2 1-7-7-17-6-19-3-16-1-9v-16l3-18 5-16 10-21 12-17 11-12 13-13 4 1 10 11 8 10 12 14 13 15 14 15 4 4 4 1-3-19-2-23v-23l3-26 6-22 6-16 8-16 10-18 12-17 9-12 14-15 17-17 11-9 15-11 20-12 16-8 15-6 25-7zm-14 119-17 2-12 5-14 10-13 13-9 13-4 11-1 6v16l4 15 8 16 12 17 12 13 4 5 3 1 10-9 9-9 8-7 20-20 6-5 7-8 33-33 7-9-1-5-9-9-15-11-18-11-14-5zm-520 512-14 3-12 6-11 9-10 10-6 8-7 14-2 7v17l4 16 6 14 8 13 13 18 5 6 3 2 4-1 9-7v-2l3-1 86-86 1-5-6-8-16-12-19-12-11-5-16-4z" fill="#3B3E47"/>
<path transform="translate(225,1398)" d="m0 0h177l54 1h94l8 1v3l-7 8-11 9-11 10-8 7-35 35-8 7-13 13-8 7-31 31-7 8-68 68-7 8-5 6-4 1-19-19-8-7-121-121-8-7-13-13-8-7-17-16-18-18-8-7-4-5 1-1 22-1z" fill="#68C0C2"/>
</svg>
