<?xml version="1.0" encoding="UTF-8"?>
<svg version="1.1" viewBox="0 0 2048 1151" width="756" height="425" xmlns="http://www.w3.org/2000/svg">
<path transform="translate(0)" d="m0 0h2048v1151h-2048z" fill="#01041C"/>
<path transform="translate(625,347)" d="m0 0h9l9 3 9 7 8 12 5 15 3 14v16l-4 25-2 13 17-1 24 4 16 6 10 8 5 7 1 4v11l-2 7-9 10-17 10-14 5-24 6-13 2-2 23-2 15-2 30-2 21-1 17-1 3v16l1 3 1 14 4 14 7 9 6 4 11 3h8l11-2 11-1h9l9 3 7 5 6 11 2 10v13l-3 10-6 9-7 6-16 8-13 4-12 3h-43l-23-5-19-8-12-9-9-10-7-11-6-14-4-17-1-9-1-24-1-3v-66l1-3 2-40 3-27v-2h-24l-12-2-14-7-4-3v16l1 17 1 3v31l-2 13-2 25-5 30-3 14-6 26-11 33-10 21-10 14-9 8-10 5-5 1h-7l-9-3-6-7-6-12-4-15-2-22v-21l2-31 3-19 3-22 2-13 1-12v-46l-4-14-5-5-3-2h-8l-5 4-7 10-9 17-6 15-1 3-1 104-2 9-2 16-6 23-8 16-9 9-10 6-8 2-13-1-8-4-5-5-6-8-7-16-4-17-3-31-1-16v-173l5-25 5-12 6-11 7-7 10-5 14-1 9 3 8 7 7 8 7 14 3 10 6-5h2l2-4 12-10 10-6 11-5 13-4 8-1h24l11 2 13 5 11 8 8 8 9 13 5 11v3h2l2-5 4-6 7-7 13-8 14-6 14-4 13-3 8-1v-10l2-10 3-26 4-16 8-20 8-11 7-7 11-6z" fill="white"/>
<path transform="translate(1623,344)" d="m0 0h34l17 4 15 6 12 7 14 11 13 14 10 15 9 21 5 17 2 22-1 23-1 9-11 33-10 19-9 13-7 9-11 12-11 11-17 13-15 9-16 8-14 5-21 5-9 1v19l-1 31-3 21-5 27-6 18-6 12-8 10-8 6-7 3-5 1h-12l-9-3-9-6-8-10-6-13-5-16-2-8-2-21-1-5-1-26v-143l1-68 1-3 2-44 3-18 3-5 16-10 16-9 23-10 19-7 20-6 14-3z" fill="white"/>
<path transform="translate(1273,437)" d="m0 0 12 1 9 6 9 10 7 14 4 10 4-2 12-12 15-10 14-6 11-3 7-1h24l11 2 11 4 10 6 13 13 8 13 6 14 6 23 2 23 1 15 1 2v28l-2 12-2 24-7 43-10 40-9 25-10 21-9 12-4 5-11 7-10 3h-7l-8-3-5-5-5-8-5-16-2-7-1-11v-41l2-22 8-56 1-37-1-20-5-13-5-4-2-1h-7l-5 2-2 4-9 14-9 19-3 8-1 7v84l-1 16-4 26-5 19-5 12-6 8-8 8-12 6-11 1-10-2-8-6-8-11-5-11-3-10-3-14-2-27-1-2-1-119v-66l5-26 4-12 8-14 8-7 8-4z" fill="white"/>
<path transform="translate(857,430)" d="m0 0h20l13 2 16 5 16 8 10 8 4 3v2l3 1 10 13 6 10 6 17 1 6v25l-1 10-4 14-8 18-9 14-10 13-7 7-17 13-17 10-19 8-26 7h-11l4 11 7 7 11 4 8 2h11l13-4 17-9 10-7 11-7 12-6 4-1h17l8 3 10 9 3 7v18l-2 9-8 16-6 9-8 10-8 8-14 11-10 7-16 9-20 8-12 3h-31l-16-4-16-7-10-7-11-9-14-14-11-16-8-14-9-21-7-24-3-19-1-4v-30l5-29 4-18 5-16 8-20 10-19 13-18 19-19 14-10 17-8 15-4z" fill="white"/>
<path transform="translate(1874,430)" d="m0 0h20l13 2 18 6 15 8 15 13 11 14 8 16 4 14v29l-3 16-6 16-9 17-12 16-11 11-12 9-11 7-19 10-18 6-17 4-10 1 1 5 5 8 5 4 10 4 8 2h11l12-3 20-11 11-8 16-9 9-3h16l8 3 8 6 4 6 2 10-1 14-5 14-7 13-10 13-13 13-13 10-13 8-16 8-11 5-16 4h-30l-9-2-10-3-15-7-14-10-12-11-10-11-10-15-8-14-9-23-6-21-3-19v-36l4-25 6-25 8-23 11-22 10-15 8-10 13-13 17-13 15-7 17-5z" fill="white"/>
<path transform="translate(171,351)" d="m0 0h43l17 3 18 6 12 7 7 8 3 7v11l-4 12-7 9-8 8-19 10-12 4h-2l1 8-1 3-2 70-1 21-1 2-2 48-1 2-3 36-2 14-2 20-2 12h14l13 4 9 5 9 9 4 8 2 5v14l-5 12-9 10-11 8-21 10-25 7-20 4-23 3-14 1h-32l-11-1-12-4-10-6-5-6-2-6v-15l3-10 6-10 6-7 13-10 12-6 12-4 4-26 5-49 1-7 2-57 1-3 1-23 1-67 1-8h-24l-12-3-12-6-7-5-6-9-2-4v-16l5-12 5-6 11-9 14-8 15-6 17-5 21-4 12-2z" fill="white"/>
<path transform="translate(1034,455)" d="m0 0h20l8 4 7 7 6 10 3 7 5 21 8-9 7-8 10-10 10-7 8-4 14-4 11-1h14l14 2 15 5 11 6 12 11 7 10 4 10 2 8v16l-3 9-7 9-11 7-9 3-7 1h-10l-9-2-14-6-6-2h-17l-9 4-11 8-7 8-9 14-5 11-3 8-2 19-1 2-1 61-1 25-3 16-5 18-7 14-6 7-8 6-9 3h-11l-9-3-10-9-8-14-5-14-4-17-3-23-1-16-1-78-2-23v-60l2-12 4-16 7-14 5-6h2l1-3 9-6z" fill="white"/>
<path transform="translate(1621,454)" d="m0 0h23l7 6 4 11 1 8-3 14-6 10-9 10-12 9-10 6-14 7h-2l-1-42-1-2-2-27 14-6z" fill="#01041C"/>
<path transform="translate(868,509)" d="m0 0h8l6 4 4 6 1 4v13l-4 8-8 8-9 5-11 5-15 4-10 1v-8l7-23 10-15 9-8z" fill="#01041C"/>
<path transform="translate(1884,509)" d="m0 0h8l5 3 5 6 2 10-1 10-4 6-6 7-14 8-18 6-14 2-1-4 4-17 4-11 8-12 9-9z" fill="#01041C"/>
</svg>
