<?xml version="1.0" encoding="UTF-8"?>
<svg version="1.1" viewBox="0 0 2048 1122" width="737" height="404" xmlns="http://www.w3.org/2000/svg">
<path transform="translate(0)" d="m0 0h2048v1122h-2048z" fill="#01041C"/>
<path transform="translate(1751,134)" d="m0 0 8 1 21 1 22 4 16 5 16 7 13 8 10 8 8 7 13 17 9 17 7 20 4 21 1 9v36l-3 20-5 19-8 18-7 12-9 12-14 14-16 11-15 8-16 6-21 5-12 2-25 1-5 1-1-1-25-1-25-5-18-6-21-11-14-11-9-9-11-15-8-15-7-21-4-20-1-7v-41l4-23 5-16 5-12 8-15 9-12 16-16 18-12 19-9 20-6 22-4 25-1z" fill="#FEFCFE"/>
<path transform="translate(923,139)" d="m0 0h127l1 1v17l-1 1-22 2-8 2-2 12-1 87h121l-1-87-2-11-9-3-21-2-1-1v-18h127l1 1v17l-1 1-22 2-8 2-2 17-1 36v38l1 127 2 14 2 2 17 3 11 1 1 1v15l-1 1h-126l-1-1v-15l1-1 18-2 9-2 3-2 2-9 1-99h-121l1 98 2 10 2 2 17 3 11 1 1 1v15l-1 1h-126l-1-1v-15l1-1 24-3 6-3 2-10v-210l-2-10-1-2-15-3-14-1-1-1z" fill="#FCF9FE"/>
<path transform="translate(276,704)" d="m0 0h124l1 1v14l-3 2-21 2-5 3-3 7-1 9-1 83h124l-1-77-2-18-3-5-5-2-22-2-1-1-1-15 1-1h124l1 1v15l-11 2-13 1-6 2-2 9-1 12v201l3 11 4 3 7 2 18 2 1 1v14l-3 1h-15l-31-1h-24l-28 1h-21l-3-1v-15l1-1 16-1 11-3 3-3 2-15 1-93-124 1 1 97 2 9 5 5 6 2 19 2 1 1v14l-7 1-42-1h-24l-47 1-5-1-1-6 1-9 2-1 16-1 10-3 3-4 1-5 1-15v-185l-1-15-2-9-4-3-3-1-21-2-2-1-1-15z" fill="#AD21E4"/>
<path transform="translate(1217,705)" d="m0 0h124l1 1v14l-1 1-22 2-7 3-2 4-1 8-1 28v70l6-3 22-22 8-7 57-57 7-8 11-12 4-7 1-15h74v15l-17 3-16 4-11 7-34 32-16 15-7 7-8 7-16 15-6 6h-2l3 5 10 11 7 9 12 14 9 10 7 9 9 10 9 11 11 13 7 8 10 12 9 11 11 12 11 8 11 4 7 1 1 3v12l-1 1h-46l-21 1h-12l-5-2-9-11-12-14-11-13-9-11-11-13-9-11-11-13-9-11-11-13-7-8-6-7-7-5h-3l-1 78 1 21 2 8 4 4 14 3 12 1 1 1v14l-1 1h-73l-32 1h-15l-5-2v-14l1-1 22-3 7-3 2-4 1-6 1-29v-155l-1-27-3-11-8-3-21-2-1-2v-13z" fill="#AD21E4"/>
<path transform="translate(1260,139)" d="m0 0 23 1h40l19-1 5 5 14 19 10 13 11 14 9 10 9 11 10 11 9 11 9 10 9 11 9 10 9 11 9 10 9 11 9 10 9 11 9 10 7 9v-150l-1-18-3-6-8-3-20-2-1-1v-16l5-1 18 1h71l1 15-2 2-24 3-5 3-2 7-1 18v194l1 37-1 3h-12l-24-4-8-7-9-10-9-11-12-13-9-11-13-15-9-11-11-13-9-11-11-13-9-11-11-13-11-14-12-14-9-11-11-13-9-11-7-9v167l1 14 3 7 7 3 21 2 1 1v16l-3 1-46-1h-45v-16l1-1 21-2 7-3 3-6 1-8v-205l-2-11-5-5-5-1-20-2-1-1v-16z" fill="#FDFBFE"/>
<path transform="translate(1738,160)" d="m0 0h25l13 3 16 8 11 9 10 12 10 18 7 20 4 19 3 34-2 30-5 25-8 20-8 12-12 12-13 8-13 5-16 3-18 1-17-3-12-5-11-7-10-9-9-12-9-17-7-21-3-14-3-29v-12l3-32 5-21 7-16 6-10 9-10 9-8 16-8 14-4z" fill="#01041C"/>
<path transform="translate(738,705)" d="m0 0h27l4 6 18 41 15 35 13 30 19 44 13 30 21 49 7 14 7 6 7 3 12 2 1 1v14h-69l-35 1h-19l-2-1v-14l1-1 21-2 5-3 1-2v-9l-6-17-12-30-2-4h-100l-17 45-1 4v8l4 6 4 2 22 2 1 1v14h-51l-37 1-4-2v-12l1-2 17-3 6-4 8-12 12-28 17-41 18-43 8-20 18-43 16-41 9-23z" fill="#AD21E4"/>
<path transform="translate(388,141)" d="m0 0h198l13 1 3 2v14l-5 46-1 1h-16l-1-1-3-29-1-3-5-2-13-2-17-1h-25l-31 1-2 1v93h55l15-2 3-4 2-21 1-2h18v59l1 27-3 2h-14l-2-1-2-12-2-13-4-6-3-2-5-1h-61l1 2v106l71-1 20-3 6-3 9-38h19v9l-4 53-1 5-6 2-16 1-35 1h-29l-53-2h-25l-23 1h-13l-1-1v-10l8-5 6-4h2l2-5 2-11v-198l-1-15-3-7-8-3-21-2z" fill="#FCF9FE"/>
<path transform="translate(1626,700)" d="m0 0h41l25 4 21 6 10 5v7l-3 21-1 9-1 23-1 1h-15l-2-6-2-23-2-6-8-7-16-8-16-4-12-1-17 2-13 5-6 4-5 4-6 9-4 10-1 4v17l4 10 5 6 10 7 15 6 56 15 16 6 15 9 12 11 7 10 5 11 3 14v18l-4 20-6 15-7 11-9 10-9 8-14 8-16 7-18 5-20 3h-34l-24-4-22-6-18-7-1-1 1-12 3-28 1-30 2-1h13l2 1 2 19 1 14 3 6 9 9 14 8 12 5 17 4h17l18-4 14-7 10-9 6-10 3-7 2-16-3-12-6-10-7-6-12-6-46-14-19-6-15-6-14-9-10-9-9-13-5-13-2-10v-17l3-17 5-14 6-11 9-10 9-8 14-8 15-6 18-4z" fill="#AD21E4"/>
<path transform="translate(796,134)" d="m0 0 10 1 26 1 24 4 25 7 17 7 2 2-1 13-6 42-1 9-2 2h-16l-1-1-2-20-1-14-8-8-13-8-14-6-12-3-9-1h-29l-16 3-16 6-11 6-11 9-7 7-9 13-7 15-5 16-3 18v32l3 19 5 18 10 21 8 11 11 12 14 10 15 8 15 5 14 3 9 1h21l15-2 21-5 19-7 11-5 5 1 3 3-1 5-7 16-9 6-20 8-19 5-18 3h-55l-19-3-22-6-21-9-15-9-11-9-10-9-11-14-8-13-7-15-5-16-3-12-2-18v-27l2-17 6-21 6-14 10-16 13-15 14-12 16-10 21-10 20-6 20-4 7-1 18-1z" fill="#FDFBFE"/>
<path transform="translate(1065,700)" d="m0 0h52l27 4 19 5 19 7 8 5-1 11-6 40-2 12-1 1h-14l-1-1-3-32-3-5-8-7-19-10-19-5-18-2h-10l-21 3-16 5-16 8-11 9-7 7-9 13-8 17-5 18-2 15v31l3 21 6 20 8 16 7 11 11 12 9 8 13 8 16 7 14 4 13 2h31l19-3 21-6 21-9 5 1 1 1-1 8-7 14-10 6-21 8-20 5-22 3h-39l-26-4-21-6-15-6-17-9-12-9-10-9-7-7-11-15-8-15-7-19-4-17-2-15v-29l2-15 5-19 5-13 8-15 9-12 10-11 14-11 13-8 16-8 16-6 19-5z" fill="#AD21E4"/>
<path transform="translate(110,141)" d="m0 0h256l1 1-1 17-2 23-1 24-1 2h-18l-1-1-3-32-3-5-7-2-62-1 1 4v185l1 33 3 6 17 3 12 2 1 5v10l-2 2h-125l-1-1v-15l4-2 22-3 4-1 2-7 1-12 1-209-63 1-7 3-2 5-1 7-2 25h-19l-4-51z" fill="#FDFBFE"/>
<path transform="translate(734,775)" d="m0 0h2l12 30 20 48 8 19-1 3h-76l-4-1 3-9 18-46 12-30z" fill="#01041C"/>
</svg>
