<?xml version="1.0" encoding="UTF-8"?>
<svg version="1.1" viewBox="0 0 2048 1707" width="547" height="456" xmlns="http://www.w3.org/2000/svg">
<path transform="translate(1449,243)" d="m0 0h222l4 1 1 19v632l5 5 15 9 27 15 28 16 24 14 16 9 24 14 23 13 24 14 28 16 25 15 9 7 3 6v235l-1 8-5-1-23-13-24-14-21-12-23-13-27-16-29-17-14-8-17-10-22-13-23-14-22-12-1 424-3 5-96 1-41-1-10-4-19-11-15-9-28-16-29-17-13-8-26-15-24-14-26-15-24-14-26-15-25-15-52-30-22-13-14-8-27-16-26-15-24-14-26-15-23-13-19-11-24-14-26-15-13-8-25-14-19-12-5-6-1-233 1-10 2-1 16 8 25 15 22 13 105 60 24 14 23 13 24 14 17 10 42 24 24 14 21 12 17 10 42 24 26 15 28 16 24 14 15 9 4 2-1-269-1-340v-378l1-28 1-4z"/>
<path transform="translate(483,242)" d="m0 0h62l14 7 14 8 26 15 24 14 26 15 54 32 23 13 21 12 22 13 16 9 27 16 28 16 26 15 43 25 18 10 17 10 21 12 34 20 52 30 48 28 26 15 25 15 5 6v247l-7-3-25-13-13-8-20-12-23-13-28-16-25-15-26-15-24-14-27-16-25-14-25-15-24-14-21-12-26-15-22-13-18-10-24-14-29-17-26-15-22-13-13-8-7-3-1 1018-2 2h-241l-4-2-1-3-1-11-1-633-3-5-10-8-27-15-25-15-23-13-21-12-25-15-17-10-26-15-24-14-15-9-26-15-7-4-2-3v-195l1-52 5 1 25 14 27 16 16 9 24 14 15 9 53 31 23 13 24 14 20 12 12 8 6 2v-376l1-50 1-1 18-1z" fill="#AD29DE"/>
</svg>
